<?xml version="1.0" standalone="no"?>
<!DOCTYPE svg PUBLIC "-//W3C//DTD SVG 20010904//EN"
 "http://www.w3.org/TR/2001/REC-SVG-20010904/DTD/svg10.dtd">
<svg version="1.0" xmlns="http://www.w3.org/2000/svg"
 width="400" height="400" viewBox="0 0 500  500"
 preserveAspectRatio="xMidYMid meet">

<g transform="translate(0,512.000000) scale(0.100500,-0.100500)"
fill=" rgba(129,82,2)" stroke="none">
<path d="M946 4949 c-63 -15 -153 -69 -197 -116 -22 -24 -55 -74 -72 -111
l-32 -67 0 -255 0 -255 32 -67 c37 -80 96 -146 158 -179 l45 -24 0 -57 0 -58
-68 0 c-227 0 -420 -148 -477 -365 -12 -50 -15 -145 -15 -583 l0 -523 25 -24
c20 -21 34 -25 80 -25 l55 0 0 -1015 0 -1016 25 -24 24 -25 2031 0 2031 0 24
25 25 24 0 1016 0 1015 55 0 c46 0 60 4 80 25 l25 24 0 523 c0 438 -3 533 -15
583 -57 217 -250 365 -477 365 l-68 0 0 58 0 57 45 24 c62 33 121 99 158 179
l32 67 0 255 0 255 -32 67 c-44 93 -100 151 -191 196 l-76 37 -176 0 -176 0
-76 -37 c-91 -45 -147 -103 -191 -196 l-32 -67 0 -255 0 -255 32 -67 c37 -80
96 -146 158 -179 l45 -24 0 -57 0 -58 -68 0 c-137 0 -264 -54 -357 -150 l-55
-59 -55 59 c-93 96 -220 150 -357 150 l-68 0 0 58 0 57 45 24 c62 33 121 99
158 179 l32 67 0 256 0 255 -37 76 c-45 91 -103 147 -196 191 l-67 32 -176 0
-175 0 -76 -37 c-91 -45 -147 -103 -191 -196 l-32 -67 0 -255 0 -255 32 -67
c37 -80 96 -146 158 -179 l45 -24 0 -57 0 -58 -68 0 c-137 0 -264 -54 -357
-150 l-55 -59 -55 59 c-93 96 -220 150 -357 150 l-68 0 0 58 0 57 45 24 c62
33 121 99 158 179 l32 67 0 255 0 255 -32 67 c-44 93 -100 151 -191 196 l-76
37 -155 2 c-86 1 -173 -2 -195 -8z m325 -161 c46 -13 113 -68 135 -109 8 -16
12 -29 9 -29 -3 0 -29 16 -58 35 -28 19 -60 35 -70 35 -10 0 -120 -29 -245
-65 -125 -36 -230 -65 -234 -65 -9 0 5 48 26 87 20 39 83 93 127 109 44 16
260 17 310 2z m1440 0 c46 -13 113 -68 135 -109 8 -16 12 -29 9 -29 -3 0 -29
16 -58 35 -28 19 -60 35 -70 35 -10 0 -120 -29 -245 -65 -125 -36 -230 -65
-234 -65 -9 0 5 48 26 87 20 39 83 93 127 109 44 16 260 17 310 2z m1440 0
c46 -13 113 -68 135 -109 8 -16 12 -29 9 -29 -3 0 -29 16 -58 35 -28 19 -60
35 -70 35 -10 0 -120 -29 -245 -65 -125 -36 -230 -65 -234 -65 -9 0 5 48 26
87 20 39 83 93 127 109 44 16 260 17 310 2z m-2796 -295 l85 -56 0 -115 c0
-147 -11 -184 -75 -247 -63 -64 -100 -75 -245 -75 -145 0 -182 11 -245 75 -63
62 -75 101 -75 238 l0 106 58 17 c198 58 389 112 400 113 7 1 50 -24 97 -56z
m1440 0 l85 -56 0 -115 c0 -147 -11 -184 -75 -247 -63 -64 -100 -75 -245 -75
-145 0 -182 11 -245 75 -63 62 -75 101 -75 238 l0 106 58 17 c198 58 389 112
400 113 7 1 50 -24 97 -56z m1440 0 l85 -56 0 -115 c0 -147 -11 -184 -75 -247
-63 -64 -100 -75 -245 -75 -145 0 -182 11 -245 75 -63 62 -75 101 -75 238 l0
106 58 17 c198 58 389 112 400 113 7 1 50 -24 97 -56z m-3035 -708 c0 -67 -29
-105 -80 -105 -51 0 -80 38 -80 105 l0 55 80 0 80 0 0 -55z m1440 0 c0 -67
-29 -105 -80 -105 -51 0 -80 38 -80 105 l0 55 80 0 80 0 0 -55z m1440 0 c0
-67 -29 -105 -80 -105 -51 0 -80 38 -80 105 l0 55 80 0 80 0 0 -55z m-3116
-204 c10 -11 31 -25 47 -31 l29 -12 0 -329 0 -329 80 0 80 0 0 329 c0 321 1
330 20 336 11 4 34 18 50 32 30 25 34 25 143 21 88 -4 122 -9 157 -26 71 -34
113 -75 151 -144 l34 -63 3 -482 3 -483 -81 0 -80 0 0 400 0 400 -80 0 -80 0
0 -400 0 -400 -320 0 -320 0 0 400 0 400 -80 0 -80 0 0 -400 0 -400 -80 0 -81
0 3 483 3 482 25 50 c43 86 125 154 215 176 17 4 73 7 126 8 82 1 98 -2 113
-18z m1440 0 c10 -11 31 -25 47 -31 l29 -12 0 -329 0 -329 80 0 80 0 0 329 c0
321 1 330 20 336 11 4 34 18 50 32 30 25 34 25 143 21 88 -4 122 -9 157 -26
71 -34 113 -75 151 -144 l34 -63 3 -482 3 -483 -81 0 -80 0 0 400 0 400 -80 0
-80 0 0 -400 0 -400 -320 0 -320 0 0 400 0 400 -80 0 -80 0 0 -400 0 -400 -80
0 -81 0 3 483 3 482 25 50 c43 86 125 154 215 176 17 4 73 7 126 8 82 1 98 -2
113 -18z m1440 0 c10 -11 31 -25 47 -31 l29 -12 0 -329 0 -329 80 0 80 0 0
329 c0 321 1 330 20 336 11 4 34 18 50 32 30 25 34 25 143 21 88 -4 122 -9
157 -26 71 -34 113 -75 151 -144 l34 -63 3 -482 3 -483 -81 0 -80 0 0 400 0
400 -80 0 -80 0 0 -400 0 -400 -320 0 -320 0 0 400 0 400 -80 0 -80 0 0 -400
0 -400 -80 0 -81 0 3 483 3 482 25 50 c43 86 125 154 215 176 17 4 73 7 126 8
82 1 98 -2 113 -18z m636 -2301 l0 -960 -1920 0 -1920 0 0 960 0 960 1920 0
1920 0 0 -960z"/>
<path d="M1145 2055 c-16 -15 -25 -35 -25 -56 0 -122 -117 -239 -239 -239 -21
0 -41 -9 -56 -25 l-25 -24 0 -431 0 -431 25 -24 c15 -16 35 -25 56 -25 122 0
239 -117 239 -239 0 -21 9 -41 25 -56 l24 -25 1391 0 1391 0 24 25 c16 15 25
35 25 56 0 122 117 239 239 239 21 0 41 9 56 25 l25 24 0 431 0 431 -25 24
c-15 16 -35 25 -56 25 -122 0 -239 117 -239 239 0 21 -9 41 -25 56 l-24 25
-1391 0 -1391 0 -24 -25z m2705 -149 c0 -32 73 -156 116 -195 42 -39 153 -101
182 -101 9 0 12 -73 12 -330 0 -257 -3 -330 -12 -330 -29 0 -140 -62 -182
-101 -43 -39 -116 -163 -116 -195 0 -12 -206 -14 -1290 -14 -1025 0 -1290 3
-1290 13 0 28 -62 139 -101 181 -39 43 -163 116 -195 116 -12 0 -14 58 -14
330 0 257 3 330 13 330 28 0 139 62 181 101 43 39 116 163 116 195 0 12 206
14 1290 14 1084 0 1290 -2 1290 -14z"/>
<path d="M2521 1744 c-253 -68 -410 -331 -346 -579 67 -256 329 -415 580 -350
256 67 415 329 350 578 -67 259 -333 419 -584 351z m254 -175 c63 -30 123 -90
155 -154 20 -41 25 -65 25 -135 -1 -77 -4 -91 -34 -148 -38 -70 -70 -101 -145
-140 -43 -22 -64 -26 -136 -26 -70 -1 -94 4 -135 24 -260 128 -238 495 35 594
63 23 170 16 235 -15z"/>
</g>
</svg>
