<?xml version="1.0" standalone="no"?>
<!DOCTYPE svg PUBLIC "-//W3C//DTD SVG 20010904//EN"
 "http://www.w3.org/TR/2001/REC-SVG-20010904/DTD/svg10.dtd">
<svg version="1.1" id="Capa_1" xmlns="http://www.w3.org/2000/svg" xmlns:xlink="http://www.w3.org/1999/xlink" x="0px" y="0px"

	 viewBox="0 0 640 640" style="enable-background:new 0 0 512 512;" xml:space="preserve">

<g transform="translate(400 ,-100) scale(1.00000,1) rotate(70 , 60, 60)"
fill=" rgba(129,82,2)" stroke="none">
<path d="M220 583 c0 -5 25 -39 56 -78 88 -110 98 -139 69 -195 -20 -39 -69
-64 -112 -57 -21 4 -64 30 -116 71 -79 64 -97 74 -97 59 0 -13 157 -133 188
-144 22 -7 32 -20 41 -49 32 -108 149 -166 249 -125 49 21 81 52 103 100 47
102 -10 223 -121 256 -22 7 -40 18 -40 25 0 16 -36 113 -50 134 -22 34 -19 -3
4 -59 14 -33 26 -67 26 -75 0 -16 -50 -32 -59 -18 -3 5 -33 44 -66 86 -55 70
-75 88 -75 69z m305 -204 c41 -28 75 -91 75 -137 0 -104 -102 -187 -206 -168
-68 13 -162 132 -123 157 9 5 17 -2 25 -28 34 -98 146 -132 223 -67 51 43 64
129 27 180 -22 29 -28 12 -10 -25 22 -45 12 -97 -26 -136 -26 -25 -38 -30 -80
-30 -40 0 -54 5 -79 29 -45 43 -49 77 -12 114 17 17 31 37 31 46 0 22 28 46
56 46 13 0 24 5 24 11 0 7 -14 10 -35 7 -21 -2 -36 1 -39 8 -13 33 98 28 149
-7z"/>
<path d="M470 361 c0 -11 31 -24 39 -16 3 3 -1 10 -9 15 -19 12 -30 12 -30 1z"/>
<path d="M403 317 c-39 -38 -25 -87 24 -87 27 0 41 -26 24 -43 -8 -8 -11 -5
-11 11 0 12 -4 22 -10 22 -5 0 -10 -10 -10 -22 -1 -21 -2 -22 -14 -5 -16 20
-26 22 -26 4 0 -7 11 -23 25 -35 l25 -22 25 22 c30 26 32 63 5 80 -11 7 -20
21 -20 30 0 10 -4 18 -10 18 -5 0 -10 -10 -10 -22 0 -16 -3 -19 -11 -11 -7 7
-9 19 -6 27 8 20 46 21 53 1 7 -19 24 -20 24 -2 0 11 -44 58 -53 56 -1 0 -12
-10 -24 -22z"/>
<path d="M183 471 c-32 -27 -29 -47 3 -22 38 30 49 27 89 -25 40 -53 43 -76
15 -104 -11 -11 -28 -20 -39 -20 -29 0 -111 68 -111 92 0 16 -3 19 -11 11 -18
-18 -1 -49 48 -87 55 -43 93 -47 128 -11 37 36 32 73 -16 134 -45 56 -69 63
-106 32z"/>
</g>
</svg>
