
<svg version="1.1" id="Capa_1" xmlns="http://www.w3.org/2000/svg" xmlns:xlink="http://www.w3.org/1999/xlink" x="0px" y="0px"

	 viewBox="0 0 650 650" style="enable-background:new 0 0 512 512;" xml:space="preserve">
 <g  fill=" rgba(129,82,2)" transform = "translate(520, 500) rotate(180 60 60)">
See transf>
<path d="M320 588 c-132 -67 -132 -249 0 -316 56 -28 104 -28 160 0 132 67
132 249 0 316 -24 12 -60 22 -80 22 -20 0 -56 -10 -80 -22z m70 -28 c0 -31
-13 -38 -40 -20 -13 9 -12 13 9 30 30 26 31 25 31 -10z m66 -1 c3 -6 0 -15 -7
-20 -26 -16 -39 -9 -39 21 0 27 2 30 19 20 11 -5 23 -15 27 -21z m-131 1 c-3
-5 -11 -10 -16 -10 -6 0 -7 5 -4 10 3 6 11 10 16 10 6 0 7 -4 4 -10z m170 0
c3 -5 2 -10 -4 -10 -5 0 -13 5 -16 10 -3 6 -2 10 4 10 5 0 13 -4 16 -10z
m-193 -59 c-3 -22 0 -31 7 -27 6 4 11 16 11 28 0 16 5 19 23 14 12 -3 28 -6
35 -6 6 0 12 -9 12 -20 0 -11 5 -20 10 -20 6 0 10 9 10 20 0 11 6 20 13 20 6
0 22 3 35 6 17 5 22 2 22 -14 0 -12 5 -24 11 -28 7 -4 10 5 7 27 -2 25 1 34
12 34 19 0 58 -77 42 -83 -16 -5 -15 -39 0 -44 16 -6 -24 -82 -45 -86 -13 -3
-15 3 -10 34 4 27 3 35 -5 30 -7 -4 -12 -16 -12 -27 0 -15 -7 -19 -35 -19 -31
0 -35 3 -35 25 0 14 -4 25 -10 25 -5 0 -10 -11 -10 -25 0 -22 -4 -25 -35 -25
-28 0 -35 4 -35 19 0 11 -5 23 -12 27 -8 5 -9 -3 -5 -30 5 -31 3 -37 -10 -34
-21 4 -61 80 -45 86 15 5 16 42 1 42 -12 0 -3 35 18 68 20 32 39 23 35 -17z
m88 -207 c0 -25 -1 -26 -22 -12 -32 22 -34 38 -4 38 21 0 26 -5 26 -26z m68
14 c-2 -6 -14 -18 -26 -26 -21 -14 -22 -13 -22 12 0 21 5 26 26 26 15 0 24 -5
22 -12z m-133 -8 c3 -5 1 -10 -4 -10 -6 0 -11 5 -11 10 0 6 2 10 4 10 3 0 8
-4 11 -10z m165 0 c0 -5 -5 -10 -11 -10 -5 0 -7 5 -4 10 3 6 8 10 11 10 2 0 4
-4 4 -10z"/>
<path d="M290 430 c0 -11 5 -20 10 -20 6 0 10 9 10 20 0 11 -4 20 -10 20 -5 0
-10 -9 -10 -20z"/>
<path d="M340 430 c0 -11 5 -20 10 -20 6 0 10 9 10 20 0 11 -4 20 -10 20 -5 0
-10 -9 -10 -20z"/>
<path d="M390 430 c0 -11 5 -20 10 -20 6 0 10 9 10 20 0 11 -4 20 -10 20 -5 0
-10 -9 -10 -20z"/>
<path d="M440 430 c0 -11 5 -20 10 -20 6 0 10 9 10 20 0 11 -4 20 -10 20 -5 0
-10 -9 -10 -20z"/>
<path d="M490 430 c0 -11 5 -20 10 -20 6 0 10 9 10 20 0 11 -4 20 -10 20 -5 0
-10 -9 -10 -20z"/>
<path d="M101 270 c-35 -5 -68 -13 -73 -18 -5 -5 -8 -44 -6 -88 l3 -79 71 3
c66 3 75 1 145 -37 41 -22 85 -41 98 -41 24 0 244 110 270 135 20 19 6 63 -22
70 -12 3 -52 -3 -88 -13 -64 -18 -67 -18 -89 0 -12 10 -35 18 -50 18 -15 0
-52 11 -82 25 -68 31 -97 35 -177 25z m157 -40 c35 -17 78 -30 96 -30 30 0 56
-15 56 -32 0 -4 -14 -15 -32 -24 -31 -16 -56 -13 -124 13 -8 3 -14 1 -14 -5 0
-6 23 -18 50 -27 56 -18 96 -11 135 24 28 25 152 58 167 43 6 -6 8 -17 5 -25
-6 -15 -204 -123 -243 -133 -13 -4 -52 10 -102 35 -49 25 -96 41 -117 41 -19
0 -35 5 -35 10 0 6 -9 10 -20 10 -25 0 -26 -17 -2 -23 10 -3 6 -5 -10 -6 -28
-1 -28 -1 -28 69 l0 69 33 5 c31 5 75 11 107 14 8 1 44 -12 78 -28z"/>
<path d="M60 220 c0 -5 9 -10 20 -10 11 0 20 5 20 10 0 6 -9 10 -20 10 -11 0
-20 -4 -20 -10z"/>
<path d="M60 170 c0 -5 9 -10 20 -10 11 0 20 5 20 10 0 6 -9 10 -20 10 -11 0
-20 -4 -20 -10z"/>
</g>
</svg>
